<?xml version="1.0" encoding="UTF-8" standalone="no"?>
<!-- Created with Inkscape (http://www.inkscape.org/) -->

<svg
   xmlns:dc="http://purl.org/dc/elements/1.1/"
   xmlns:cc="http://creativecommons.org/ns#"
   xmlns:rdf="http://www.w3.org/1999/02/22-rdf-syntax-ns#"
   xmlns:svg="http://www.w3.org/2000/svg"
   xmlns="http://www.w3.org/2000/svg"
   xmlns:sodipodi="http://sodipodi.sourceforge.net/DTD/sodipodi-0.dtd"
   xmlns:inkscape="http://www.inkscape.org/namespaces/inkscape"
   width="200mm"
   height="200mm"
   viewBox="0 0 708.66142 708.66141"
   id="svg5854"
   version="1.1"
   inkscape:version="0.91 r13725"
   sodipodi:docname="logo.svg"
   inkscape:export-filename="/var/www/sexydiversion/assets/img/global/logo.png"
   inkscape:export-xdpi="96"
   inkscape:export-ydpi="96">
  <defs
     id="defs5856" />
  <sodipodi:namedview
     id="base"
     pagecolor="#ffffff"
     bordercolor="#666666"
     borderopacity="1.0"
     inkscape:pageopacity="0.0"
     inkscape:pageshadow="2"
     inkscape:zoom="0.61544734"
     inkscape:cx="265.28475"
     inkscape:cy="167.14449"
     inkscape:document-units="px"
     inkscape:current-layer="layer1"
     showgrid="false"
     inkscape:window-width="1280"
     inkscape:window-height="995"
     inkscape:window-x="1360"
     inkscape:window-y="0"
     inkscape:window-maximized="1" />
  <metadata
     id="metadata5859">
    <rdf:RDF>
      <cc:Work
         rdf:about="">
        <dc:format>image/svg+xml</dc:format>
        <dc:type
           rdf:resource="http://purl.org/dc/dcmitype/StillImage" />
        <dc:title />
      </cc:Work>
    </rdf:RDF>
  </metadata>
  <g
     inkscape:label="Layer 1"
     inkscape:groupmode="layer"
     id="layer1"
     transform="translate(0,-343.70079)">
    <flowRoot
       xml:space="preserve"
       id="flowRoot6526"
       style="font-style:normal;font-variant:normal;font-weight:normal;font-stretch:normal;font-size:40px;line-height:125%;font-family:FreeSans;-inkscape-font-specification:FreeSans;letter-spacing:0px;word-spacing:0px;fill:#000000;fill-opacity:1;stroke:none;stroke-width:1px;stroke-linecap:butt;stroke-linejoin:miter;stroke-opacity:1;"
       transform="translate(0,343.70079)"><flowRegion
         id="flowRegion6528"><rect
           id="rect6530"
           width="467.14667"
           height="164.98434"
           x="-59.320213"
           y="156.24196"
           style="font-style:normal;font-variant:normal;font-weight:normal;font-stretch:normal;font-family:FreeSans;-inkscape-font-specification:FreeSans;" /></flowRegion><flowPara
         id="flowPara6532" /></flowRoot>    <g
       id="g4193">
      <path
         d="m 496.40887,611.62818 c -39.52195,-12.75683 -72.95478,-39.02827 -94.18061,-73.92078 -5.14129,-8.46168 -8.84649,-14.77298 -9.10499,-15.76567 -1.20632,-4.47971 -5.65828,-7.38788 -10.08153,-9.09364 -20.56521,-7.94156 -43.37077,1.52959 -63.99341,9.40683 -20.59396,7.87724 -45.97015,13.63487 -63.26675,0.18187 -3.69656,-2.87462 -6.75837,-6.47908 -10.60429,-9.15796 -16.72791,-11.64388 -39.60816,-1.94344 -58.21737,6.57695 -25.1579,11.51806 -51.53653,20.50544 -78.58149,26.772 -21.665283,5.01939 -43.965317,8.3638 -64.335211,17.12188 -20.372772,8.75528 -39.1457088,24.11548 -45.2721919,44.96206 -6.804322,23.14796 3.9464656,49.09224 22.9089589,64.55031 18.962495,15.45807 44.720715,21.38348 69.430551,20.35723 22.406313,-0.93118 48.819403,-5.77441 63.979053,10.31843 16.57854,17.60005 6.13509,45.34823 6.53722,69.22602 0.70369,41.84111 39.82928,76.12681 81.99659,84.24145 42.1673,8.11269 85.73625,-4.62818 124.65503,-22.3619 24.18423,-11.01136 48.7993,-24.31682 75.48237,-23.65382 19.44504,0.47846 37.71245,8.39429 56.20965,14.25035 53.79698,17.03464 116.38299,15.85486 163.11428,-15.21285 21.54176,-14.33115 36.85078,-15.97509 43.51435,-69.73439 7.49653,-60.47607 -47.73653,-77.66506 -65.42953,-82.34331 L 496.40887,611.62829"
         style="fill:#ff6999;fill-opacity:1;fill-rule:nonzero;stroke:none"
         id="path630"
         inkscape:connector-curvature="0" />
      <g
         transform="translate(330.85418,-107.6127)"
         id="g6510">
        <path
           inkscape:connector-curvature="0"
           id="path632"
           style="fill:#00fbed;fill-opacity:1;fill-rule:nonzero;stroke:none"
           d="M 31.513344,666.16306 C 61.577869,606.9062 105.7121,558.22502 157.44438,543.84074 c 9.8918,-2.74879 20.17272,-4.22245 30.02356,-1.30309 12.73852,3.77504 23.69527,14.5269 34.05811,25.34027 0.4096,5.84432 -4.36222,9.63613 -8.4582,11.35587 -4.11647,1.72253 -9.05213,3.85333 -10.13756,9.52987 -1.16736,5.97853 2.80574,11.31671 6.36925,15.13929 -4.36222,4.23363 -7.76189,11.39221 -6.73789,18.56198 1.00351,7.16977 7.96669,12.21434 12.10363,7.57244 -1.90463,6.26936 -0.98304,13.95086 2.27327,19.07652 0.77824,1.22478 1.72031,2.48033 1.76127,4.0994 0.0205,1.60789 -0.86015,2.93894 -1.67935,4.07425 -23.22423,31.76901 -49.11085,60.9766 -66.15014,99.35613 -5.85726,13.18745 -11.98076,28.80491 -23.03992,31.95637 -10.93627,3.1151 -22.56887,-10.8022 -21.74967,-25.99741 -8.253411,-0.053 -16.670658,-2.91657 -23.244713,-9.71443 -6.574055,-6.79785 -11.018198,-17.87409 -10.4038,-29.09853 -8.171488,0.49775 -16.732096,0.90042 -24.125347,-3.8729 -7.393252,-4.77053 -13.06619,-16.50949 -10.42428,-27.07679 -5.365739,1.48764 -11.263957,-3.78902 -12.410832,-11.11818 -1.146876,-7.33196 6.041576,-15.55874 6.041576,-15.55874" />
        <path
           inkscape:connector-curvature="0"
           id="path634"
           style="fill:#ff6999;fill-opacity:1;fill-rule:nonzero;stroke:none"
           d="m 32.7831,667.17533 c 19.599284,-38.41028 44.707668,-72.18986 74.69027,-95.32104 15.03226,-11.60753 31.23188,-20.39357 48.12782,-25.43534 10.28092,-3.06757 21.05336,-4.96907 31.47764,-1.94624 9.60508,2.78793 18.22713,9.80949 26.15286,17.4882 1.26975,1.22758 5.67293,4.28955 6.20541,6.23859 1.41312,5.16481 -4.36222,7.92478 -6.75837,9.10203 -3.07199,1.50163 -6.47166,2.5838 -8.88829,5.80796 -5.77534,7.70107 -0.32768,16.89538 4.46462,22.21119 0.1024,-1.04862 0.2048,-2.10004 0.3072,-3.14866 -5.01758,5.29344 -9.80988,14.56604 -6.73789,23.51707 2.35519,6.86497 8.78589,10.48901 13.57819,6.07921 -0.7168,-0.75501 -1.4336,-1.50722 -2.15039,-2.26223 -1.00352,3.95121 -1.31072,7.90521 -0.63488,12.02419 0.73728,4.51606 4.87422,9.56622 3.35871,14.34234 -0.53248,1.68618 -2.64191,3.57929 -3.56351,4.82645 -1.59744,2.13919 -3.19487,4.26998 -4.7923,6.3896 -2.82623,3.7219 -5.65246,7.41864 -8.47869,11.12097 -11.46876,15.01905 -22.93751,30.10241 -33.17747,46.71256 -4.91518,7.94436 -9.54365,16.22147 -13.70107,24.92642 -3.85023,8.10095 -7.08605,16.87022 -11.57116,24.40071 -4.60798,7.7598 -11.28443,14.49614 -19.00536,12.36814 -8.21245,-2.25943 -14.37691,-12.64218 -14.13115,-24.01482 0.0205,-1.10175 -0.69632,-1.98259 -1.47455,-2.00776 -15.544263,-0.4558 -32.849796,-12.60023 -32.194438,-36.8052 0.04096,-1.05141 -0.696318,-2.0525 -1.454075,-2.00776 -7.74141,0.4586 -16.199618,1.13252 -23.38807,-3.59607 -6.737894,-4.44894 -11.898834,-14.3647 -9.727963,-24.81176 0.22528,-1.12133 -0.450558,-2.71244 -1.433594,-2.53906 -5.713898,1.03184 -12.92283,-5.39691 -10.44476,-14.20532 1.003516,-3.54015 3.010549,-6.59373 5.11998,-9.0489 1.433595,-1.68618 -0.655357,-4.51327 -2.088952,-2.83827 -3.481586,4.09102 -7.290852,10.5673 -6.430695,17.24492 1.105916,8.64064 7.80285,13.94806 13.844427,12.86029 -0.471038,-0.84729 -0.942076,-1.69178 -1.413115,-2.53906 -2.088952,10.18141 1.535994,20.26215 7.577571,26.41126 8.048609,8.17924 18.882488,7.63676 28.385171,7.0747 -0.491518,-0.66832 -0.983036,-1.33944 -1.474554,-2.00497 -0.737277,26.43084 18.001851,40.31458 35.123067,40.81792 -0.49152,-0.66832 -0.98304,-1.33944 -1.47456,-2.00496 -0.28672,13.8362 7.70045,26.43084 17.77658,28.21769 11.10011,1.96861 19.18968,-10.36877 24.6783,-21.84208 7.98717,-16.73878 15.54426,-33.07769 25.33366,-48.09115 9.85084,-15.09734 20.58232,-29.03142 31.25236,-43.01583 3.03103,-3.96518 6.04158,-7.93316 9.05213,-11.9347 2.15039,-2.8886 5.22238,-5.87507 6.71741,-9.51588 1.08544,-2.67608 0.7168,-4.59995 -0.43008,-7.06911 -2.94911,-6.37841 -4.83326,-11.12097 -2.90815,-18.7801 0.4096,-1.61907 -1.10591,-3.22416 -2.15039,-2.26502 -3.8707,3.54853 -8.54012,-0.19283 -9.70748,-5.86389 -1.37215,-6.69999 2.12991,-12.9246 5.8163,-16.80869 0.67584,-0.70188 1.12639,-2.23986 0.3072,-3.14866 -4.7923,-5.31581 -9.29789,-13.94806 -1.57696,-19.05694 3.66591,-2.41043 7.74141,-2.9613 10.95676,-6.59373 1.63839,-1.82879 3.05151,-4.29794 3.25631,-7.26484 0.3072,-4.76493 -4.46462,-7.33755 -6.86078,-9.70883 -7.65949,-7.55567 -15.85145,-14.50173 -24.9855,-18.11737 -9.09308,-3.60446 -18.63673,-3.2745 -27.93461,-1.33944 -34.85683,7.25366 -67.153664,31.76622 -93.306523,63.38983 -15.011782,18.14813 -28.200852,38.91921 -39.649128,61.35411 -1.085436,2.1252 1.454075,4.13296 2.539511,2.02733" />
        <path
           inkscape:connector-curvature="0"
           id="path636"
           style="fill:#ff6999;fill-opacity:1;fill-rule:nonzero;stroke:none"
           d="m 68.377203,711.39078 c -5.693418,9.69205 -11.386837,19.38411 -17.080255,29.07616 -12.021713,20.4579 -24.145827,41.14509 -32.481155,64.76562 -2.273271,6.38121 -4.157424,14.31717 -1.249275,20.18665 3.256308,6.59094 10.956758,6.10717 15.54426,1.20242 4.587503,-4.90754 5.795818,-13.5314 9.195485,-19.9965 14.049226,-26.73004 42.372957,-82.4971 41.389921,-84.00711 -0.348159,-0.55927 -15.318981,-11.22724 -15.318981,-11.22724" />
        <path
           inkscape:connector-curvature="0"
           id="path638"
           style="fill:#ff6999;fill-opacity:1;fill-rule:nonzero;stroke:none"
           d="m 67.332727,709.97305 c -14.786503,25.20045 -30.781322,49.8724 -43.110235,77.54761 -4.239343,9.49631 -12.328912,24.80897 -8.806366,36.61225 2.60095,8.75528 10.731479,9.91296 16.302018,6.04285 3.686385,-2.55025 5.877737,-7.06631 7.70045,-11.95708 1.966072,-5.28784 3.932145,-10.13946 6.451175,-14.97151 4.587503,-8.80841 9.154525,-17.66436 13.680588,-26.54548 8.048609,-15.79363 16.404417,-31.52015 23.613349,-48.06599 1.372155,-3.13188 3.051508,-5.72407 0.614397,-8.31626 -4.177903,-4.45454 -9.953241,-7.3012 -14.663623,-10.66238 -1.658874,-1.19123 -3.153908,2.26782 -1.474554,3.46464 3.502066,2.50551 7.024613,5.0222 10.506199,7.57804 1.269755,0.91719 3.194868,3.1151 4.607982,3.44786 -0.942076,-0.22079 0.14336,-1.60509 -0.675837,-1.04302 -0.286719,0.20133 -0.716797,1.8232 -0.880637,2.22866 -5.263339,12.6226 -11.653075,24.51536 -17.653692,36.46964 -7.413731,14.68629 -15.257541,28.99227 -22.507433,43.80719 -4.464623,9.09923 -7.434212,26.13443 -18.22713,22.351 -12.758991,-4.46573 1.146875,-32.28074 4.853741,-40.44321 12.103634,-26.55667 27.463575,-50.36736 41.75856,-74.70934 1.167355,-1.99378 -0.901117,-4.85162 -2.088952,-2.83547" />
        <path
           inkscape:connector-curvature="0"
           id="path640"
           style="fill:#fffde6;fill-opacity:1;fill-rule:nonzero;stroke:none"
           d="m 63.83066,705.16617 c -5.693418,9.68925 -11.386836,19.38131 -17.080254,29.07336 -12.021714,20.46069 -24.145827,41.14788 -32.501635,64.76842 -2.252792,6.38121 -4.157424,14.31717 -1.249275,20.18665 3.276787,6.59093 10.956757,6.10437 15.54426,1.19962 4.607982,-4.90475 5.795818,-13.5286 9.195484,-19.9965 C 51.788466,773.67047 80.132677,717.90342 79.149641,716.3934 78.781003,715.83134 63.83066,705.16617 63.83066,705.16617" />
        <path
           inkscape:connector-curvature="0"
           id="path642"
           style="fill:#ff6999;fill-opacity:1;fill-rule:nonzero;stroke:none"
           d="m 62.786184,703.74564 c -14.806983,25.20325 -30.801801,49.87241 -43.130714,77.5504 -4.218864,9.49631 -12.3289126,24.80898 -8.806366,36.61225 2.62143,8.75529 10.731479,9.91297 16.302017,6.04286 3.686386,-2.55305 5.877738,-7.06911 7.700451,-11.95708 1.986552,-5.28784 3.932144,-10.13946 6.451175,-14.97151 4.607982,-8.81121 9.154525,-17.66437 13.680587,-26.54549 8.048609,-15.79642 16.424897,-31.52014 23.633829,-48.06878 1.351675,-3.12908 3.031029,-5.72127 0.614398,-8.31347 -4.198384,-4.45454 -9.953242,-7.30119 -14.663624,-10.66237 -1.679353,-1.19403 -3.174387,2.26502 -1.495034,3.46464 3.522547,2.50551 7.024613,5.0222 10.52668,7.57524 1.249275,0.91719 3.174387,3.1151 4.587502,3.44786 -0.921596,-0.21811 0.163839,-1.60229 -0.655358,-1.04302 -0.307198,0.20133 -0.737277,1.82599 -0.901116,2.22866 -5.26334,12.6254 -11.632595,24.51536 -17.653692,36.46964 -7.393252,14.68908 -15.257541,28.99227 -22.507434,43.80998 -4.444143,9.09924 -7.413731,26.13164 -18.22713,22.35101 -12.7589905,-4.46573 1.146876,-32.28075 4.874222,-40.44321 12.083153,-26.55668 27.443094,-50.37016 41.738079,-74.71214 1.167356,-1.99378 -0.880636,-4.84883 -2.068472,-2.83547" />
        <path
           inkscape:connector-curvature="0"
           id="path644"
           style="fill:#fffde6;fill-opacity:1;fill-rule:nonzero;stroke:none"
           d="M 15.088448,651.22231 C 45.173452,591.96544 89.287202,543.28427 141.03996,528.89999 c 9.87133,-2.74879 20.15225,-4.22525 30.00309,-1.30309 12.75899,3.77504 23.71575,14.5241 34.07859,25.34027 0.4096,5.84152 -4.36223,9.63333 -8.47869,11.35587 -4.09598,1.72253 -9.03165,3.85333 -10.13756,9.52987 -1.14688,5.97853 2.82623,11.31671 6.36925,15.13928 -4.34174,4.23364 -7.74141,11.39222 -6.73789,18.56199 1.00352,7.16977 7.98717,12.21434 12.12411,7.57244 -1.90463,6.26936 -0.98303,13.94806 2.25279,19.07651 0.77824,1.22479 1.7408,2.48034 1.76128,4.09941 0.041,1.60509 -0.83968,2.93894 -1.67936,4.07425 -23.22423,31.76901 -49.09037,60.9766 -66.12966,99.35613 -5.85726,13.18745 -12.00124,28.80491 -23.06039,31.95637 -10.9158,3.1123 -22.568876,-10.8022 -21.749679,-26.00021 -8.232928,-0.053 -16.670656,-2.91377 -23.224231,-9.71163 -6.574055,-6.79786 -11.018197,-17.87409 -10.42428,-29.10132 -8.171488,0.50054 -16.711615,0.90321 -24.104867,-3.87011 -7.393252,-4.77053 -13.06619,-16.51229 -10.42428,-27.07679 -5.386219,1.48484 -11.263957,-3.78902 -12.4108323,-11.12098 -1.1468755,-7.32916 6.0210973,-15.55594 6.0210973,-15.55594" />
        <path
           inkscape:connector-curvature="0"
           id="path646"
           style="fill:#ff6999;fill-opacity:1;fill-rule:nonzero;stroke:none"
           d="m 16.358203,652.23178 c 19.619764,-38.41028 44.707668,-72.18985 74.690273,-95.31824 15.052744,-11.60753 31.252364,-20.39358 48.148294,-25.43534 10.28092,-3.06757 21.05336,-4.96907 31.45716,-1.94904 9.62556,2.79073 18.24761,9.8095 26.17334,17.4882 1.26975,1.23038 5.65246,4.29235 6.18493,6.24139 1.4336,5.16201 -4.34174,7.92198 -6.75837,9.09923 -3.07199,1.50163 -6.47165,2.58381 -8.88828,5.81076 -5.75486,7.70107 -0.3072,16.89258 4.4851,22.21119 0.1024,-1.04862 0.18432,-2.10004 0.28672,-3.14866 -5.01758,5.29344 -9.80989,14.56604 -6.71742,23.51428 2.35519,6.86776 8.76541,10.489 13.57819,6.082 -0.7168,-0.75501 -1.45407,-1.51002 -2.17087,-2.26223 -0.98304,3.95121 -1.31072,7.90241 -0.63488,12.02419 0.73728,4.51606 4.87422,9.56342 3.35871,14.33954 -0.53248,1.68898 -2.62143,3.58209 -3.56351,4.82645 -1.57695,2.14199 -3.17439,4.26999 -4.7923,6.3924 -2.80575,3.7219 -5.63198,7.41864 -8.45821,11.12097 -11.46875,15.01905 -22.95799,30.10241 -33.19795,46.71256 -4.8947,7.94436 -9.52316,16.22147 -13.68059,24.92363 -3.8707,8.10374 -7.10653,16.87021 -11.57115,24.4007 -4.62846,7.7626 -11.30492,14.49614 -19.02585,12.37093 -8.191968,-2.25942 -14.376904,-12.64217 -14.131145,-24.01761 0.02048,-1.09895 -0.696317,-1.98259 -1.474554,-2.00496 -15.54426,-0.4558 -32.849794,-12.60023 -32.173956,-36.80799 0.02048,-1.04862 -0.696318,-2.04971 -1.474555,-2.00497 -7.74141,0.4586 -16.199617,1.12972 -23.36759,-3.59607 -6.737894,-4.44895 -11.898834,-14.3647 -9.748442,-24.81176 0.225279,-1.12133 -0.450559,-2.71244 -1.413115,-2.53907 -5.713898,1.02905 -12.9228303,-5.3969 -10.46524,-14.20531 1.003516,-3.54015 3.031029,-6.59653 5.119981,-9.0517 1.433594,-1.68338 -0.655358,-4.51047 -2.068472,-2.83547 -3.502067,4.09102 -7.3113324,10.56451 -6.4511757,17.24492 1.1059158,8.64064 7.8233297,13.94526 13.8649067,12.85749 -0.471038,-0.84449 -0.942076,-1.69177 -1.413115,-2.53626 -2.109431,10.18141 1.515515,20.26215 7.577571,26.41126 8.028129,8.17924 18.862008,7.63676 28.364691,7.0747 -0.491518,-0.67112 -0.983036,-1.33944 -1.474554,-2.00776 -0.716797,26.43363 18.022331,40.31737 35.123065,40.81792 -0.491518,-0.66833 -0.962556,-1.33665 -1.454075,-2.00497 -0.307198,13.839 7.679971,26.43084 17.776574,28.22049 11.10012,1.96861 19.1692,-10.36877 24.65782,-21.84208 8.00765,-16.73878 15.56474,-33.07769 25.33367,-48.09115 9.85084,-15.09734 20.58232,-29.03421 31.27284,-43.01583 3.01054,-3.96518 6.04157,-7.93316 9.03164,-11.9375 2.17087,-2.8858 5.22238,-5.87507 6.71742,-9.51308 1.10591,-2.67609 0.73727,-4.59996 -0.4096,-7.0719 -2.94911,-6.37562 -4.85374,-11.11818 -2.90815,-18.78011 0.4096,-1.61627 -1.1264,-3.22136 -2.17087,-2.26222 -3.85023,3.54853 -8.54013,-0.19306 -9.68701,-5.86389 -1.37215,-6.69999 2.12992,-12.9274 5.8163,-16.80869 0.65536,-0.70188 1.10592,-2.24265 0.28672,-3.14866 -4.7923,-5.31581 -9.29788,-13.94806 -1.55647,-19.05694 3.64542,-2.41043 7.72093,-2.9613 10.95675,-6.59652 1.61792,-1.826 3.05151,-4.29515 3.23583,-7.26205 0.32768,-4.76773 -4.46462,-7.33755 -6.86077,-9.71163 -7.63901,-7.55287 -15.83098,-14.50173 -24.96503,-18.11737 -9.11356,-3.60166 -18.6572,-3.2717 -27.93461,-1.33944 -34.85682,7.25646 -67.174141,31.76902 -93.327,63.39263 -14.991302,18.14813 -28.180372,38.91642 -39.649128,61.35411 -1.085435,2.12241 1.474555,4.13017 2.539511,2.02453" />
        <path
           inkscape:connector-curvature="0"
           id="path648"
           style="fill:#ff6999;fill-opacity:1;fill-rule:nonzero;stroke:none"
           d="m 26.475284,668.20997 c 21.954475,-29.76965 43.888471,-59.54209 65.842947,-89.31454 3.932145,-5.33538 8.499169,-11.03988 14.049229,-11.00073 0.55295,0.002 1.14687,0.0951 1.55647,0.62079 0.59392,0.77458 0.47104,2.08046 0.24576,3.15145 -1.78175,8.54277 -7.14749,14.64714 -12.226513,20.19224 -22.732713,24.78381 -45.465425,49.56762 -68.177658,74.35142 l -1.290235,1.99937" />
        <path
           inkscape:connector-curvature="0"
           id="path650"
           style="fill:#ff6999;fill-opacity:1;fill-rule:nonzero;stroke:none"
           d="m 27.51976,669.6305 c 13.250509,-17.98874 26.521498,-35.97468 39.772007,-53.96343 6.860773,-9.30336 13.721547,-18.60673 20.582321,-27.91009 2.908149,-3.94841 5.734378,-8.1345 8.847326,-11.76692 2.007032,-2.32095 12.513236,-11.42019 9.113566,-1.55756 -3.33823,9.68087 -11.079639,16.15995 -16.998336,22.61666 -7.577571,8.26034 -15.155142,16.52347 -22.732713,24.7838 -7.065572,7.71226 -14.131145,15.42172 -21.196718,23.13118 -6.348776,6.9237 -14.131146,13.50065 -19.476405,21.8281 -1.249275,1.93505 0.839677,4.78171 2.088952,2.83826 4.546542,-7.09706 11.018197,-12.62819 16.424897,-18.52563 6.819813,-7.43542 13.639627,-14.86805 20.459441,-22.30627 6.553575,-7.15858 13.127629,-14.31996 19.701684,-21.47855 6.205416,-6.78388 12.94331,-13.19584 18.636728,-20.79625 2.82623,-3.74987 7.86429,-11.09301 7.02461,-17.07714 -0.79871,-5.70729 -6.61501,-3.29686 -9.15452,-1.7505 -6.143978,3.76106 -10.8134,11.80887 -15.503302,18.15652 -6.164456,8.37219 -12.349392,16.74438 -18.513848,25.11657 -13.721548,18.60953 -27.443095,37.21626 -41.164642,55.82299 -1.331195,1.8232 0.737277,4.65867 2.088952,2.83826" />
        <path
           inkscape:connector-curvature="0"
           id="path652"
           style="fill:#ff6999;fill-opacity:1;fill-rule:nonzero;stroke:none"
           d="m 59.161238,694.08434 c 24.965024,-32.79806 49.930052,-65.59613 74.895072,-98.39419 1.08544,-1.42892 2.25279,-2.91098 3.72735,-3.39474 3.54302,-1.17166 6.65597,4.54402 6.20541,9.49352 -0.45056,4.94949 -3.13343,8.89789 -5.73438,12.40728 -23.20375,31.32999 -79.093452,79.88813 -79.093452,79.88813" />
        <path
           inkscape:connector-curvature="0"
           id="path654"
           style="fill:#ff6999;fill-opacity:1;fill-rule:nonzero;stroke:none"
           d="m 60.205714,695.49928 c 14.561224,-19.12964 29.122448,-38.26208 43.683676,-57.39452 7.39325,-9.71722 14.80698,-19.43444 22.20023,-29.15166 1.61791,-2.1252 3.23583,-4.2532 4.85374,-6.37841 0.8192,-1.07658 1.82272,-2.70963 2.76479,-3.64361 1.39264,-1.35901 5.3043,-4.59156 7.22941,-3.36956 1.6384,1.03463 1.57696,6.41756 1.31072,7.75699 -0.43008,2.21749 -1.82271,4.71181 -2.84671,6.33088 -1.10592,1.76727 -2.35519,3.37796 -3.58399,4.98864 -18.14521,23.7995 -39.587684,43.35138 -60.415764,62.45865 -5.611499,5.16481 -11.263957,10.28488 -16.977855,15.25394 -1.597434,1.38418 -0.12288,4.85442 1.474554,3.46465 18.431929,-16.02573 36.5157,-32.97983 53.923635,-51.0273 5.75486,-5.97294 11.44827,-12.0829 16.93689,-18.52004 4.73086,-5.55349 11.24348,-11.9403 13.76251,-19.93498 2.04799,-6.47349 -0.24576,-17.55531 -6.73789,-16.0453 -3.60447,0.84169 -6.47166,6.22741 -8.92925,9.45157 -4.3827,5.76881 -8.76541,11.54042 -13.16859,17.30924 -19.189685,25.20605 -38.379372,50.4121 -57.569058,75.61535 -1.372155,1.79244 0.716797,4.62791 2.088952,2.83547" />
        <path
           inkscape:connector-curvature="0"
           id="path656"
           style="fill:#ff6999;fill-opacity:1;fill-rule:nonzero;stroke:none"
           d="m 96.946693,734.49959 c 17.469377,-26.91181 34.959227,-53.82641 52.449077,-80.74101 1.57696,-2.44679 3.29727,-4.99983 5.57054,-5.98413 2.29375,-0.98431 5.28382,0.32996 5.89822,3.4926 0.4096,2.09725 -0.3072,4.26719 -1.08544,6.16589 -12.24699,30.26181 -38.87089,43.40732 -56.46314,68.29179 l -6.369257,8.77486" />
        <path
           inkscape:connector-curvature="0"
           id="path658"
           style="fill:#ff6999;fill-opacity:1;fill-rule:nonzero;stroke:none"
           d="m 97.970689,735.92012 c 11.939791,-18.38302 23.879591,-36.76045 35.819381,-55.14068 5.83678,-8.96221 11.34588,-18.69062 17.61273,-27.0684 0.88064,-1.35062 1.88416,-2.49712 3.01055,-3.43948 3.89119,1.92667 5.14046,4.25601 3.74783,6.98242 -0.47104,1.93785 -1.7408,3.9568 -2.60095,5.62061 -2.02751,3.97637 -4.36223,7.65353 -6.86078,11.0958 -9.54364,13.17348 -21.36055,22.67818 -32.17395,33.6901 -7.51613,7.63396 -14.04923,16.38085 -20.623283,25.42136 -1.331195,1.83439 0.737277,4.67266 2.068472,2.83827 6.574051,-9.03212 13.086671,-17.78461 20.602801,-25.37662 9.5846,-9.67248 19.80408,-18.26558 28.69237,-29.18243 4.21886,-5.19556 20.68472,-25.60312 13.35291,-34.04242 -3.23583,-3.7275 -7.55709,-1.23877 -10.28092,2.14198 -5.83678,7.3012 -10.79292,16.44517 -16.05626,24.54332 -12.79995,19.6917 -25.57942,39.3862 -38.379373,59.0779 -1.249275,1.92667 0.819197,4.77333 2.068472,2.83827" />
      </g>
      <flowRoot
         transform="translate(151.96064,369.55857)"
         style="font-style:normal;font-variant:normal;font-weight:bold;font-stretch:normal;font-size:87.5px;line-height:125%;font-family:sans-serif;-inkscape-font-specification:'sans-serif Bold';letter-spacing:0px;word-spacing:0px;fill:#000000;fill-opacity:1;stroke:none;stroke-width:1px;stroke-linecap:butt;stroke-linejoin:miter;stroke-opacity:1"
         id="flowRoot6534"
         xml:space="preserve"><flowRegion
           id="flowRegion6536"><rect
             style="font-style:normal;font-variant:normal;font-weight:bold;font-stretch:normal;font-size:87.5px;font-family:sans-serif;-inkscape-font-specification:'sans-serif Bold'"
             y="171.07201"
             x="-76.004021"
             height="229.86583"
             width="533.8819"
             id="rect6538" /></flowRegion><flowPara
           style="font-style:normal;font-variant:normal;font-weight:600;font-stretch:normal;font-size:87.5px;font-family:FreeSans;-inkscape-font-specification:'FreeSans Semi-Bold';fill:#ffffff;fill-opacity:1"
           id="flowPara6540">SEXY</flowPara></flowRoot>      <flowRoot
         transform="translate(254.70028,549.9569)"
         style="font-style:normal;font-variant:normal;font-weight:bold;font-stretch:normal;font-size:87.5px;line-height:125%;font-family:sans-serif;-inkscape-font-specification:'sans-serif Bold';letter-spacing:0px;word-spacing:0px;fill:#000000;fill-opacity:1;stroke:none;stroke-width:1px;stroke-linecap:butt;stroke-linejoin:miter;stroke-opacity:1"
         id="flowRoot6534-5"
         xml:space="preserve"><flowRegion
           id="flowRegion6536-7"><rect
             style="font-style:normal;font-variant:normal;font-weight:bold;font-stretch:normal;font-size:87.5px;font-family:sans-serif;-inkscape-font-specification:'sans-serif Bold'"
             y="171.07201"
             x="-76.004021"
             height="229.86583"
             width="533.8819"
             id="rect6538-0" /></flowRegion><flowPara
           id="flowPara6566"
           style="font-style:normal;font-variant:normal;font-weight:600;font-stretch:normal;font-size:87.5px;font-family:FreeSans;-inkscape-font-specification:'FreeSans Semi-Bold';fill:#ffffff;fill-opacity:1">DIVERSIÓN</flowPara></flowRoot>    </g>
  </g>
</svg>
