<svg id="Layer_1" xmlns="http://www.w3.org/2000/svg" viewBox="0 0 121.5 62"><style>.st0{enable-background:new}.st1{fill:none;stroke:#fff;stroke-width:3;stroke-miterlimit:10}.st2{fill:#d9534f}</style><g class="st0"><path class="st1" d="M19.5 48.6V18.3h4.9v30.2h-4.9zm25.8-26.5c-2.8 0-5.1 1-6.7 3s-2.4 4.8-2.4 8.3c0 3.7.8 6.5 2.3 8.4 1.6 1.9 3.8 2.9 6.8 2.9 1.3 0 2.5-.1 3.7-.4s2.4-.6 3.7-1v4.2c-2.4.9-5.1 1.3-8.1 1.3-4.4 0-7.8-1.3-10.2-4s-3.6-6.5-3.6-11.5c0-3.1.6-5.9 1.7-8.2 1.2-2.4 2.8-4.2 5-5.4 2.2-1.3 4.7-1.9 7.7-1.9 3.1 0 5.9.6 8.6 1.9L52.1 24c-1-.5-2.1-.9-3.2-1.3s-2.4-.6-3.6-.6zm40.8 11.3c0 4.9-1.2 8.7-3.7 11.5-2.5 2.7-5.9 4.1-10.5 4.1s-8.1-1.4-10.5-4.1c-2.4-2.7-3.7-6.6-3.7-11.5 0-5 1.2-8.8 3.7-11.5s6-4 10.5-4 8 1.4 10.4 4.1c2.5 2.6 3.8 6.5 3.8 11.4zm-23.1 0c0 3.7.8 6.5 2.3 8.5 1.5 1.9 3.7 2.9 6.7 2.9 2.9 0 5.2-1 6.6-2.9 1.5-1.9 2.2-4.7 2.2-8.5 0-3.7-.7-6.5-2.2-8.4-1.5-1.9-3.7-2.9-6.6-2.9-3 0-5.2 1-6.7 2.9S63 29.7 63 33.4zm53.3-15.1v19.6c0 2.2-.5 4.2-1.4 5.9s-2.3 3-4.2 3.9c-1.8.9-4 1.4-6.5 1.4-3.7 0-6.7-1-8.7-3-2.1-2-3.1-4.7-3.1-8.2V18.3h5v19.1c0 2.5.6 4.3 1.7 5.5 1.2 1.2 2.9 1.8 5.3 1.8 4.7 0 7-2.4 7-7.3V18.3h4.9z"/></g><path class="st2" d="M6.5 6.5h27.7V0H0v34.2h6.5z"/></svg>