<svg id="Layer_1" xmlns="http://www.w3.org/2000/svg" viewBox="0 0 71.4 31.1"><style>.st0{fill:#fff}.st1{fill:#d9534f}</style><path class="st0" d="M12 30.8V12.3h3v18.6h-3zm15.8-16.2c-1.7 0-3.1.6-4.1 1.9s-1.5 2.9-1.5 5.1c0 2.3.5 4 1.4 5.2 1 1.2 2.4 1.8 4.2 1.8.8 0 1.5-.1 2.3-.2.7-.2 1.5-.4 2.3-.6v2.6c-1.5.6-3.1.8-5 .8-2.7 0-4.8-.8-6.3-2.5-1.5-1.6-2.2-4-2.2-7.1 0-1.9.4-3.6 1.1-5.1.7-1.4 1.7-2.6 3.1-3.3S26 12 27.8 12c1.9 0 3.6.4 5.3 1.2L32 15.7c-.6-.3-1.3-.6-2-.8-.7-.2-1.4-.3-2.2-.3zm25.1 6.9c0 3-.8 5.4-2.3 7-1.5 1.7-3.6 2.5-6.4 2.5-2.8 0-5-.8-6.5-2.5s-2.3-4-2.3-7.1c0-3.1.8-5.4 2.3-7.1 1.5-1.6 3.7-2.5 6.5-2.5s4.9.8 6.4 2.5 2.3 4.2 2.3 7.2zm-14.2 0c0 2.3.5 4 1.4 5.2.9 1.2 2.3 1.8 4.1 1.8 1.8 0 3.2-.6 4.1-1.8.9-1.2 1.4-2.9 1.4-5.2 0-2.3-.5-4-1.4-5.2-.9-1.2-2.3-1.8-4.1-1.8-1.8 0-3.2.6-4.1 1.8-1 1.2-1.4 2.9-1.4 5.2zm32.7-9.2v12c0 1.4-.3 2.6-.9 3.6-.6 1-1.4 1.8-2.6 2.4-1.1.6-2.4.8-4 .8-2.3 0-4.1-.6-5.4-1.8s-1.9-2.9-1.9-5v-12h3V24c0 1.5.4 2.7 1.1 3.4s1.8 1.1 3.3 1.1c2.9 0 4.3-1.5 4.3-4.5V12.3h3.1z"/><path class="st1" d="M4 4h17V0H0v21h4z"/></svg>