<?xml version="1.0" standalone="no"?>
<!DOCTYPE svg PUBLIC "-//W3C//DTD SVG 20010904//EN"
 "http://www.w3.org/TR/2001/REC-SVG-20010904/DTD/svg10.dtd">
<svg version="1.0" xmlns="http://www.w3.org/2000/svg"
 width="211.000000pt" height="211.000000pt" viewBox="0 0 211.000000 211.000000"
 preserveAspectRatio="xMidYMid meet">
<metadata>
Created by potrace 1.11, written by Peter Selinger 2001-2013
</metadata>
<g transform="translate(0.000000,211.000000) scale(0.100000,-0.100000)"
fill="#000000" stroke="none">
<path d="M1140 1760 c0 -13 18 -22 24 -11 3 5 -1 11 -9 15 -8 3 -15 1 -15 -4z"/>
<path d="M1115 1731 c-3 -12 -11 -18 -17 -15 -6 4 -9 1 -6 -6 8 -25 25 -21 31
7 6 34 1 43 -8 14z"/>
<path d="M866 1721 c-8 -13 22 -22 50 -15 28 7 30 2 8 -20 -12 -12 -12 -16 -2
-16 10 0 9 -3 -2 -10 -13 -8 -12 -10 3 -10 10 0 15 -5 12 -10 -8 -13 -77 -2
-87 14 -5 7 -8 5 -8 -6 0 -10 -12 -19 -31 -23 -20 -5 -35 -16 -42 -33 -9 -19
-18 -26 -34 -24 -25 4 -53 -31 -53 -66 0 -20 -4 -23 -23 -18 -32 8 -85 -9
-114 -36 -22 -21 -23 -26 -23 -190 l0 -169 51 2 c28 2 56 8 63 14 6 6 17 10
23 8 10 -4 13 40 16 179 l2 183 3 -187 c1 -141 -1 -188 -10 -191 -8 -3 -6 -6
4 -6 10 -1 36 8 58 20 38 20 54 34 27 23 -8 -3 -14 2 -14 11 0 10 6 14 15 10
12 -5 13 -3 2 10 -7 9 -10 18 -6 22 3 3 6 1 6 -5 0 -15 27 -15 36 0 4 6 3 8
-4 4 -6 -3 -14 -1 -18 5 -5 8 -3 9 5 5 8 -5 14 0 18 13 3 12 9 21 14 21 12 0
11 -14 -1 -26 -8 -8 -6 -15 6 -25 12 -9 15 -10 10 -1 -5 8 2 12 26 12 25 0 29
3 18 10 -13 8 -12 10 5 11 11 1 23 1 28 0 4 0 7 6 7 14 0 10 -11 15 -37 16
-33 2 -34 2 -8 6 61 7 74 13 78 36 3 15 4 13 2 -5 -1 -20 3 -28 15 -28 13 0
16 10 14 58 -1 31 0 46 3 33 4 -19 7 -21 14 -10 6 9 9 -2 9 -33 l0 -48 40 0
40 0 0 155 0 154 -35 17 c-45 21 -60 47 -39 65 13 10 17 10 25 -2 7 -10 8 -6
4 12 -5 20 -1 29 20 43 14 9 23 21 20 26 -10 17 -20 11 -38 -20 -10 -17 -27
-30 -37 -30 -15 0 -18 -6 -15 -31 3 -24 1 -29 -11 -25 -9 3 -20 6 -25 6 -6 0
-7 5 -4 10 4 6 11 8 16 5 5 -4 9 3 9 14 0 12 -5 20 -11 19 -6 -2 -14 3 -17 11
-3 10 2 13 22 9 25 -5 26 -4 11 12 -8 9 -21 17 -28 17 -6 0 -26 4 -44 7 -17 3
-34 2 -37 -3z m4 -171 c0 -12 -9 -24 -22 -29 -31 -12 -34 -6 -14 24 20 30 36
32 36 5z m47 -6 c-3 -3 -12 -4 -19 -1 -8 3 -5 6 6 6 11 1 17 -2 13 -5z m40
-30 c-3 -3 -12 -4 -19 -1 -8 3 -5 6 6 6 11 1 17 -2 13 -5z"/>
<path d="M1170 1716 c0 -18 17 -29 30 -21 8 5 7 11 -1 21 -15 18 -29 18 -29 0z"/>
<path d="M1130 1716 c0 -2 7 -6 15 -10 8 -3 15 -1 15 4 0 6 -7 10 -15 10 -8 0
-15 -2 -15 -4z"/>
<path d="M1430 1690 c0 -5 5 -10 10 -10 6 0 10 5 10 10 0 6 -4 10 -10 10 -5 0
-10 -4 -10 -10z"/>
<path d="M1140 1681 c0 -4 -11 -7 -25 -6 -14 2 -25 -1 -25 -5 0 -5 12 -7 28
-5 15 2 30 4 35 4 11 1 8 21 -3 21 -5 0 -10 -4 -10 -9z"/>
<path d="M1473 1683 c-7 -2 -13 -11 -13 -19 0 -17 -17 -19 -23 -1 -4 9 -7 9
-18 -1 -12 -11 -11 -15 3 -26 10 -7 15 -16 11 -19 -11 -11 -23 -8 -23 7 0 8
-16 16 -42 19 -44 6 -68 -5 -68 -30 0 -8 -5 -11 -10 -8 -6 4 -8 15 -5 25 5 16
0 18 -35 16 -73 -4 -75 -9 -78 -251 -3 -173 -1 -215 10 -216 7 0 31 -3 53 -5
47 -6 65 12 65 63 0 18 4 33 9 33 4 0 7 -21 5 -46 -2 -26 -1 -44 3 -41 3 4 13
1 21 -6 13 -10 14 -9 7 2 -6 11 -5 12 6 5 8 -5 23 -9 34 -9 29 -1 44 -13 40
-33 -4 -21 13 -37 43 -38 l22 -1 0 238 c0 226 -1 240 -20 259 -11 11 -20 25
-20 31 0 6 9 13 20 16 11 3 20 14 20 24 0 11 -1 19 -2 18 -2 0 -9 -3 -15 -6z
m-220 -301 c-3 -23 -10 -42 -15 -42 -6 0 -7 15 -3 37 13 68 27 72 18 5z m-3
-63 c0 -5 -4 -8 -9 -4 -5 3 -12 -5 -14 -17 -4 -20 -4 -19 -6 5 -1 18 4 27 14
27 8 0 15 -5 15 -11z"/>
<path d="M1172 1668 c5 -15 28 -23 28 -10 0 5 -7 13 -16 16 -10 4 -14 1 -12
-6z"/>
<path d="M1056 1607 c3 -10 9 -15 12 -12 3 3 0 11 -7 18 -10 9 -11 8 -5 -6z"/>
<path d="M1645 1610 c4 -6 11 -8 16 -5 14 9 11 15 -7 15 -8 0 -12 -5 -9 -10z"/>
<path d="M1108 1559 c-16 -9 -18 -30 -18 -200 l0 -190 23 2 c12 2 28 0 35 -4
9 -7 12 33 12 187 0 131 -3 196 -11 196 -5 0 -7 5 -4 10 8 13 -15 12 -37 -1z"/>
<path d="M1507 1563 c-4 -3 -7 -112 -7 -240 l0 -235 28 2 c55 4 60 1 58 -29
-1 -16 2 -29 8 -28 5 1 12 -6 14 -16 2 -10 0 -17 -5 -16 -21 4 -34 -2 -27 -12
8 -14 7 -297 -2 -310 -3 -5 -21 -9 -40 -9 -28 0 -35 -4 -33 -17 3 -31 -1 -38
-12 -23 -10 13 -10 13 -6 0 7 -24 -15 -47 -46 -47 -15 0 -28 3 -28 8 -1 5 -2
15 -3 22 -1 6 3 15 9 19 6 5 5 8 -3 8 -7 0 -15 -7 -18 -15 -4 -8 -10 -15 -15
-15 -5 0 -3 10 5 23 10 15 12 27 6 37 -17 26 -11 29 29 15 22 -7 42 -11 45 -7
4 3 29 5 56 3 l50 -2 0 75 c0 77 -4 84 -44 77 -7 -2 -53 -2 -98 0 -10 0 -18 7
-18 15 0 8 -10 14 -25 14 -22 0 -24 3 -15 19 5 11 7 27 4 35 -5 12 -2 15 12 9
12 -4 15 -3 10 5 -5 9 -1 10 16 3 27 -10 49 -4 64 17 9 12 11 4 9 -35 -3 -43
0 -52 16 -56 23 -6 25 2 3 18 -22 16 -10 57 14 48 9 -3 14 -3 10 2 -4 4 -3 14
2 21 8 9 6 12 -7 10 -11 0 -18 6 -18 16 0 31 -18 39 -49 22 -16 -8 -32 -11
-35 -7 -3 4 -19 8 -36 8 -30 0 -61 -27 -50 -44 3 -6 -3 -14 -12 -20 -17 -10
-16 -11 4 -17 22 -6 41 -34 23 -34 -6 0 -10 4 -10 8 0 4 -10 8 -22 8 -13 0
-36 4 -53 8 -28 7 -29 6 -10 -7 11 -9 23 -13 27 -11 4 3 5 -2 2 -10 -3 -9 -11
-16 -17 -16 -6 0 -7 3 -4 7 4 3 -5 12 -20 20 -22 11 -28 11 -43 -2 -9 -8 -20
-12 -24 -8 -4 4 -3 -4 2 -18 9 -22 7 -25 -15 -27 -18 -1 -24 2 -19 13 3 8 1
17 -3 19 -5 3 -6 18 -4 33 3 20 2 24 -5 14 -5 -7 -15 -10 -21 -7 -6 4 -11 1
-11 -8 0 -10 6 -13 18 -9 9 3 14 3 10 -2 -4 -4 -3 -13 2 -20 6 -7 4 -19 -7
-34 l-16 -24 -19 24 -20 24 6 -24 c4 -18 2 -21 -7 -12 -6 6 -21 11 -34 11
l-23 0 0 -154 0 -154 38 3 c20 2 37 4 37 5 0 1 10 3 22 4 12 1 20 -1 17 -5 -2
-4 0 -10 4 -13 23 -14 33 44 30 170 -2 83 1 131 7 131 6 0 9 -49 8 -129 -2
-148 3 -164 59 -173 21 -4 38 -11 38 -16 0 -17 19 -9 25 11 5 15 15 20 39 20
43 0 48 -7 30 -42 -8 -16 -12 -33 -9 -38 3 -5 1 -11 -4 -15 -10 -5 -44 22 -52
42 -2 5 -15 6 -29 2 l-25 -6 25 -10 c14 -6 24 -14 23 -19 -2 -5 2 -10 7 -10 6
-1 14 -2 19 -3 5 0 17 -8 25 -17 13 -13 16 -13 16 -1 0 23 23 37 37 22 7 -8 8
-16 2 -22 -6 -6 -2 -18 11 -33 18 -20 23 -22 30 -10 6 9 6 16 0 18 -6 2 -7 8
-4 14 4 7 9 6 14 -2 4 -7 13 -9 19 -6 17 11 13 20 -11 31 -13 6 -24 20 -26 32
-3 19 -7 21 -27 13 -27 -10 -36 -4 -27 18 10 28 32 45 61 48 22 3 26 -1 28
-22 2 -43 18 -46 18 -3 0 24 -4 39 -12 39 -7 0 -10 7 -7 15 4 8 10 12 16 9 5
-3 8 2 6 12 -2 14 4 17 37 18 33 1 39 4 37 20 -2 11 1 15 7 11 6 -3 11 -1 11
4 0 6 -5 11 -11 11 -8 0 -8 5 1 15 7 8 16 13 20 10 5 -3 12 0 16 7 5 8 10 6
15 -8 6 -16 8 -14 8 9 1 17 5 26 11 22 7 -5 10 40 9 139 0 92 -5 145 -11 143
-6 -1 -12 11 -13 26 -3 22 0 27 11 23 12 -5 14 25 14 195 0 174 -2 205 -18
238 -17 35 -17 39 -3 50 9 6 12 10 6 8 -5 -3 -20 -1 -32 4 -16 6 -21 14 -17
26 5 14 4 15 -4 4 -9 -12 -15 -13 -37 -3 -30 14 -30 14 -38 5z m43 -23 c0 -5
-5 -10 -11 -10 -5 0 -7 5 -4 10 3 6 8 10 11 10 2 0 4 -4 4 -10z m30 -26 c0 -8
-5 -12 -10 -9 -6 4 -8 11 -5 16 9 14 15 11 15 -7z m35 -424 c3 -5 1 -10 -4
-10 -6 0 -11 5 -11 10 0 6 2 10 4 10 3 0 8 -4 11 -10z m-315 -305 c0 -8 7 -15
16 -15 12 0 15 -6 9 -22 -3 -13 -7 -30 -7 -38 -1 -8 -6 -19 -12 -23 -7 -5 -5
-7 6 -5 9 2 17 -1 17 -7 1 -5 -14 -10 -32 -11 -18 0 -39 -4 -47 -9 -9 -6 -11
-4 -5 5 5 8 1 19 -11 28 -17 13 -17 14 -1 9 15 -6 16 -3 7 13 -15 28 -12 32
13 19 18 -9 20 -9 10 1 -7 7 -29 16 -50 20 l-38 6 49 5 c35 3 54 0 65 -11 16
-16 16 -17 -5 35 -3 8 -1 15 5 15 6 0 11 -7 11 -15z m116 -43 c1 -7 0 -8 -3
-2 -7 15 -43 13 -38 -3 3 -6 -4 -18 -15 -24 -17 -11 -18 -10 -13 5 6 15 5 16
-13 2 -17 -14 -18 -14 -6 2 8 9 20 14 28 11 8 -3 14 -2 13 3 -3 20 2 25 23 22
12 -2 23 -9 24 -16z"/>
<path d="M1697 1414 c-4 -4 -8 -37 -9 -73 l-2 -66 -3 55 c-2 30 -8 59 -14 65
-5 5 -9 -62 -9 -182 l0 -191 30 -7 c36 -8 46 -21 30 -40 -19 -23 -49 -19 -43
5 3 11 1 20 -5 20 -6 0 -11 -55 -11 -149 -2 -125 1 -149 14 -154 18 -8 20 -27
2 -27 -7 0 -13 -11 -13 -25 0 -14 2 -25 6 -25 14 1 28 18 35 45 6 21 9 25 12
13 4 -16 6 -16 19 -4 21 22 17 29 -16 24 -33 -5 -42 11 -10 19 20 5 22 26 5
53 -8 13 -7 13 8 1 9 -7 17 -24 17 -36 0 -36 36 -39 60 -5 11 15 17 30 14 32
-2 3 0 17 5 32 7 17 7 26 1 26 -6 0 -10 9 -10 21 0 11 -5 29 -10 40 -9 15 -7
19 5 19 10 0 13 -5 9 -12 -5 -8 -2 -9 10 -5 14 5 17 3 12 -8 -3 -8 -1 -15 4
-15 16 0 11 30 -5 36 -8 4 -15 12 -15 20 0 8 -4 14 -10 14 -5 0 -10 -4 -10
-10 0 -5 -4 -10 -10 -10 -5 0 -10 6 -10 14 0 8 -12 17 -26 20 -20 5 -24 11
-18 29 4 12 11 25 17 29 16 10 39 -3 33 -19 -3 -8 -2 -11 4 -8 5 3 25 6 45 7
19 1 35 5 35 9 0 5 7 6 15 3 8 -4 15 -1 15 5 0 6 7 11 15 11 8 0 15 4 15 9 0
4 11 20 24 34 21 22 23 31 16 62 -8 37 -20 58 -20 37 0 -7 -7 -12 -16 -12 -8
0 -12 5 -8 11 4 8 0 9 -15 4 -18 -5 -21 -3 -19 17 2 13 6 25 10 28 15 12 -23
43 -51 42 -21 0 -31 5 -36 21 -4 12 -8 25 -10 30 -1 4 -3 12 -4 18 0 6 -12 9
-25 7 -37 -7 -46 3 -47 55 -1 27 -5 43 -9 36 -6 -8 -9 -8 -11 0 -3 7 -8 9 -12
5z m210 -376 c-3 -7 -5 -2 -5 12 0 14 2 19 5 13 2 -7 2 -19 0 -25z m-212 -178
c3 -5 1 -10 -4 -10 -6 0 -11 5 -11 10 0 6 2 10 4 10 3 0 8 -4 11 -10z m15 -46
c0 -8 -4 -12 -10 -9 -5 3 -10 10 -10 16 0 5 5 9 10 9 6 0 10 -7 10 -16z m74
-63 c3 -5 0 -11 -7 -14 -8 -3 -14 1 -14 9 0 16 13 19 21 5z"/>
<path d="M462 1384 c-12 -8 -22 -26 -22 -40 0 -20 -5 -24 -28 -24 -21 0 -33
-8 -47 -32 -11 -18 -20 -37 -20 -43 0 -5 -7 -10 -15 -11 -45 -3 -50 -5 -50
-23 0 -11 -4 -23 -10 -26 -5 -3 -10 -11 -10 -16 0 -6 4 -7 10 -4 6 3 7 -1 4
-9 -3 -9 -10 -13 -15 -10 -5 3 -9 -5 -9 -18 l-1 -23 -13 25 c-8 14 -12 29 -9
33 3 5 -4 3 -16 -5 -11 -7 -19 -20 -16 -28 2 -8 1 -19 -3 -25 -10 -15 -32 -17
-32 -3 0 6 -3 8 -6 5 -4 -4 -1 -13 6 -22 10 -12 16 -13 26 -4 8 6 14 10 15 8
5 -23 4 -47 -2 -44 -4 3 -9 -1 -12 -8 -3 -8 0 -14 6 -14 7 0 31 -5 55 -11 41
-10 47 -6 43 21 -2 16 13 6 59 -35 11 -10 27 -15 36 -11 9 3 20 0 24 -7 7 -11
12 -10 25 4 10 9 24 15 33 11 34 -13 41 24 42 218 0 199 -1 204 -48 171z m1
-44 c3 -11 1 -18 -4 -14 -5 3 -9 12 -9 20 0 20 7 17 13 -6z m-23 -60 c0 -5 -2
-10 -4 -10 -3 0 -8 5 -11 10 -3 6 -1 10 4 10 6 0 11 -4 11 -10z m-123 -85 c0
-8 -4 -12 -9 -9 -5 3 -6 10 -3 15 9 13 12 11 12 -6z"/>
<path d="M1875 1290 c3 -5 8 -10 11 -10 2 0 4 5 4 10 0 6 -5 10 -11 10 -5 0
-7 -4 -4 -10z"/>
<path d="M1006 1232 c-3 -5 4 -20 15 -34 28 -34 59 -27 59 13 0 26 -3 29 -34
29 -19 0 -37 -4 -40 -8z"/>
<path d="M926 1203 c-6 -14 -5 -15 5 -6 7 7 10 15 7 18 -3 3 -9 -2 -12 -12z"/>
<path d="M2075 1200 c-3 -5 -1 -10 4 -10 6 0 11 5 11 10 0 6 -2 10 -4 10 -3 0
-8 -4 -11 -10z"/>
<path d="M860 1170 c-8 -5 -10 -10 -5 -10 6 0 17 5 25 10 8 5 11 10 5 10 -5 0
-17 -5 -25 -10z"/>
<path d="M520 1045 c0 -40 13 -44 48 -16 34 29 29 51 -13 51 -33 0 -35 -2 -35
-35z"/>
<path d="M2000 1050 c0 -5 5 -10 11 -10 5 0 7 5 4 10 -3 6 -8 10 -11 10 -2 0
-4 -4 -4 -10z"/>
<path d="M1956 1025 c4 -8 8 -15 10 -15 2 0 4 7 4 15 0 8 -4 15 -10 15 -5 0
-7 -7 -4 -15z"/>
<path d="M1428 1013 c6 -2 9 -10 6 -15 -4 -7 -2 -8 5 -4 13 9 5 26 -12 25 -9
0 -8 -2 1 -6z"/>
<path d="M682 990 c-12 -12 -22 -16 -22 -9 0 6 -6 9 -14 6 -8 -3 -17 -1 -20 6
-3 9 -5 8 -5 -1 -1 -7 -6 -10 -12 -6 -8 4 -10 -48 -7 -182 l3 -189 30 -14 c17
-8 32 -17 35 -21 3 -4 15 -6 28 -5 20 1 22 -2 18 -21 -6 -21 -4 -22 15 -15 14
5 33 2 56 -10 19 -10 44 -16 56 -13 26 5 102 -15 92 -24 -3 -4 -13 -7 -21 -7
-7 0 -13 -4 -13 -9 0 -5 -4 -12 -9 -15 -6 -3 -3 -12 6 -21 14 -13 15 -12 9 3
-7 19 8 33 18 17 9 -15 35 7 29 24 -4 9 3 12 20 11 15 -2 24 1 20 6 -3 5 -2 9
3 9 4 0 5 66 1 147 -9 185 -12 209 -27 226 -6 8 -10 21 -8 28 2 8 2 11 0 7
-11 -18 -23 -6 -13 12 9 16 8 18 -5 14 -8 -4 -15 -10 -15 -16 0 -5 -4 -6 -10
-3 -5 3 -10 15 -10 26 0 11 -7 19 -16 19 -10 0 -14 -6 -11 -14 7 -17 -16 -40
-27 -28 -5 4 -6 -1 -4 -12 4 -24 -28 -30 -43 -8 -9 14 -10 14 -6 1 3 -9 -1
-16 -9 -16 -7 0 -11 4 -8 9 3 4 1 8 -4 8 -13 0 -22 -25 -23 -63 0 -25 -2 -28
-8 -13 -4 11 -6 44 -5 73 1 31 -2 51 -7 47 -5 -3 -12 2 -15 10 -3 9 -13 16
-21 16 -8 0 -11 5 -8 10 4 6 11 7 17 4 7 -4 8 -2 4 4 -9 15 -8 16 -34 -8z"/>
<path d="M735 990 c-8 -13 -1 -24 14 -19 6 3 7 10 2 18 -6 10 -10 10 -16 1z"/>
<path d="M1540 990 c-10 -6 -11 -12 -3 -22 6 -7 9 -21 8 -30 -2 -10 2 -15 9
-12 14 5 19 61 7 68 -4 3 -13 1 -21 -4z"/>
<path d="M1698 993 c7 -3 16 -2 19 1 4 3 -2 6 -13 5 -11 0 -14 -3 -6 -6z"/>
<path d="M555 979 c-4 -6 -14 -8 -21 -5 -13 5 -15 -24 -13 -198 1 -184 3 -204
18 -199 13 5 14 3 4 -8 -15 -15 -17 -49 -4 -49 9 0 25 30 23 43 -1 4 2 7 8 7
13 0 13 -6 0 -31 -8 -14 -7 -19 3 -19 10 0 14 13 13 45 0 43 -15 60 -31 35 -9
-15 -25 -12 -25 5 0 9 6 12 15 9 8 -4 15 -2 15 4 0 6 -6 13 -12 15 -10 4 -10
6 -1 6 6 1 15 -3 18 -9 20 -32 25 6 25 175 0 154 -2 185 -14 185 -8 0 -18 -5
-21 -11z"/>
<path d="M830 965 c-7 -9 -10 -18 -6 -22 3 -3 6 -1 6 5 0 6 8 12 18 14 11 2
13 6 6 11 -7 4 -17 0 -24 -8z"/>
<path d="M473 959 c-12 -4 -28 -17 -34 -28 -10 -15 -16 -17 -29 -9 -10 7 -29
8 -46 3 -26 -7 -27 -8 -9 -15 14 -6 15 -9 4 -9 -8 -1 -20 4 -27 11 -9 9 -15 9
-23 1 -6 -6 -19 -9 -28 -6 -14 4 -14 3 -1 -6 8 -5 11 -13 8 -17 -9 -8 16 -34
33 -34 8 0 8 -4 -1 -16 -8 -8 -9 -14 -4 -13 5 1 21 -3 36 -9 20 -8 26 -16 21
-29 -3 -10 -3 -15 1 -11 4 3 15 0 24 -8 9 -8 38 -30 65 -49 l47 -35 0 139 c0
77 -3 142 -7 144 -5 3 -18 1 -30 -4z m-36 -121 c-3 -8 -6 -5 -6 6 -1 11 2 17
5 13 3 -3 4 -12 1 -19z"/>
<path d="M1810 955 c-11 -13 -10 -14 4 -9 9 3 16 1 16 -5 0 -6 5 -11 10 -11 6
0 10 9 10 20 0 24 -22 26 -40 5z"/>
<path d="M1249 939 l-24 -20 28 17 c15 9 27 18 27 20 0 8 -8 4 -31 -17z"/>
<path d="M1110 946 c0 -2 7 -7 16 -10 8 -3 12 -2 9 4 -6 10 -25 14 -25 6z"/>
<path d="M1020 910 c-12 -7 -10 -9 7 -7 12 0 19 5 17 9 -6 10 -6 10 -24 -2z"/>
<path d="M1075 910 c3 -5 8 -10 11 -10 2 0 4 5 4 10 0 6 -5 10 -11 10 -5 0 -7
-4 -4 -10z"/>
<path d="M1440 909 c0 -5 5 -7 10 -4 6 3 10 8 10 11 0 2 -4 4 -10 4 -5 0 -10
-5 -10 -11z"/>
<path d="M1550 911 c-8 -6 -19 -7 -25 -4 -5 4 -1 -3 9 -15 20 -23 36 -28 36
-12 0 6 -3 9 -7 9 -22 -4 -25 3 -7 16 21 16 17 20 -6 6z"/>
<path d="M985 890 c3 -5 8 -10 11 -10 2 0 4 5 4 10 0 6 -5 10 -11 10 -5 0 -7
-4 -4 -10z"/>
<path d="M1387 886 c-4 -10 -1 -13 8 -9 8 3 12 9 9 14 -7 12 -11 11 -17 -5z"/>
<path d="M1863 885 c0 -8 4 -15 9 -15 4 0 8 7 8 15 0 8 -4 15 -8 15 -5 0 -9
-7 -9 -15z"/>
<path d="M1439 888 c-6 -22 -4 -35 7 -35 7 0 10 5 7 10 -3 5 1 13 8 18 11 7
10 9 -3 9 -10 0 -18 -1 -19 -2z"/>
<path d="M1055 869 l-20 -9 20 2 c11 2 26 -1 32 -5 9 -6 11 -3 7 7 -7 18 -11
18 -39 5z"/>
<path d="M1015 860 c3 -5 8 -10 11 -10 2 0 4 5 4 10 0 6 -5 10 -11 10 -5 0 -7
-4 -4 -10z"/>
<path d="M311 774 c0 -11 3 -14 6 -6 3 7 2 16 -1 19 -3 4 -6 -2 -5 -13z"/>
<path d="M400 713 c0 -13 -3 -14 -12 -5 -16 16 -25 15 -25 -3 0 -8 4 -12 8
-10 3 3 12 -1 18 -9 8 -10 5 -16 -15 -24 -14 -7 -22 -17 -19 -22 7 -11 55 16
55 31 0 18 2 24 11 35 5 6 6 14 2 17 -12 12 -23 7 -23 -10z"/>
<path d="M454 688 c3 -13 6 -26 6 -30 0 -5 9 -8 20 -8 22 0 27 -15 9 -26 -6
-3 -15 0 -20 7 -7 11 -9 11 -9 -2 0 -21 26 -43 40 -34 20 12 11 60 -15 79 -13
10 -22 22 -19 27 3 5 0 9 -7 9 -7 0 -9 -9 -5 -22z"/>
<path d="M1778 696 c-10 -7 -15 -16 -11 -19 10 -10 25 -8 18 2 -3 5 3 11 12
13 10 2 13 6 8 10 -6 3 -18 1 -27 -6z"/>
<path d="M1434 629 c-4 -7 -3 -9 4 -5 5 3 12 0 15 -6 2 -7 7 -10 11 -7 4 3 0
12 -8 18 -11 9 -16 9 -22 0z"/>
<path d="M408 603 c7 -3 16 -2 19 1 4 3 -2 6 -13 5 -11 0 -14 -3 -6 -6z"/>
<path d="M1680 602 c-8 -4 -16 -13 -18 -21 -2 -11 0 -12 11 -3 17 14 47 6 47
-13 0 -8 -7 -21 -16 -30 -9 -9 -14 -18 -11 -21 9 -9 27 6 27 21 0 8 8 19 18
24 9 6 11 11 5 11 -7 0 -13 9 -13 20 0 20 -20 25 -50 12z"/>
<path d="M600 580 c0 -15 4 -20 15 -17 21 9 28 -9 9 -27 -9 -9 -14 -28 -12
-44 3 -29 3 -29 23 -9 17 17 17 19 3 14 -12 -4 -18 -1 -18 8 0 8 7 15 16 15
10 0 14 6 11 14 -3 7 0 19 6 25 8 8 7 11 -3 11 -7 0 -22 7 -32 17 -17 15 -18
15 -18 -7z"/>
<path d="M486 574 c-9 -8 -16 -18 -16 -21 0 -4 3 -3 7 0 3 4 11 3 17 -2 7 -6
11 -1 12 15 2 28 0 29 -20 8z"/>
<path d="M1577 564 c7 -3 9 -12 6 -20 -3 -8 1 -14 11 -14 19 0 17 -20 -3 -36
-8 -6 -11 -16 -6 -24 6 -10 9 -9 16 1 5 8 9 9 9 4 0 -6 9 -11 20 -12 12 -1 20
4 20 14 0 10 -6 13 -16 9 -15 -6 -15 -4 0 18 21 33 20 36 -6 33 -14 -1 -23 4
-23 13 0 8 -9 16 -20 17 -11 2 -15 0 -8 -3z"/>
<path d="M662 535 c-13 -28 -1 -42 32 -36 11 1 16 -2 12 -8 -4 -6 -2 -11 3
-11 20 0 11 20 -14 32 -18 8 -24 17 -19 30 8 26 -1 22 -14 -7z"/>
<path d="M1660 534 c0 -14 4 -23 9 -20 5 3 7 15 4 26 -7 28 -13 25 -13 -6z"/>
<path d="M763 505 c18 -13 25 -51 7 -40 -5 3 -10 1 -10 -4 0 -25 28 -9 32 18
4 25 1 30 -21 34 -23 5 -24 4 -8 -8z"/>
<path d="M811 484 c0 -11 3 -14 6 -6 3 7 2 16 -1 19 -3 4 -6 -2 -5 -13z"/>
<path d="M850 484 c0 -14 3 -15 18 -3 9 7 19 15 21 16 2 2 -5 3 -17 3 -14 0
-22 -6 -22 -16z"/>
<path d="M1312 478 c5 -15 28 -18 29 -3 0 6 -7 12 -17 13 -10 3 -15 -1 -12
-10z"/>
<path d="M1530 479 c0 -5 5 -7 10 -4 6 3 10 8 10 11 0 2 -4 4 -10 4 -5 0 -10
-5 -10 -11z"/>
<path d="M645 470 c-3 -5 1 -10 9 -10 9 0 16 5 16 10 0 6 -4 10 -9 10 -6 0
-13 -4 -16 -10z"/>
<path d="M980 468 c0 -9 -6 -19 -12 -21 -10 -4 -10 -6 0 -6 14 -1 28 26 18 36
-3 4 -6 -1 -6 -9z"/>
<path d="M1443 465 c-3 -9 -3 -18 -1 -21 3 -3 8 4 11 16 6 23 -1 27 -10 5z"/>
<path d="M690 452 c0 -12 3 -12 15 -2 8 7 15 13 15 15 0 1 -7 2 -15 2 -8 0
-15 -7 -15 -15z"/>
<path d="M730 451 c0 -5 5 -13 10 -16 6 -3 10 -2 10 4 0 5 -4 13 -10 16 -5 3
-10 2 -10 -4z"/>
<path d="M1080 450 c0 -5 5 -10 10 -10 6 0 10 5 10 10 0 6 -4 10 -10 10 -5 0
-10 -4 -10 -10z"/>
<path d="M1466 451 c-3 -5 1 -11 9 -15 9 -3 15 0 15 9 0 16 -16 20 -24 6z"/>
<path d="M1616 451 c-4 -5 -2 -12 3 -15 5 -4 12 -2 15 3 4 5 2 12 -3 15 -5 4
-12 2 -15 -3z"/>
<path d="M1694 453 c15 -4 16 -7 5 -15 -11 -7 -11 -9 -1 -6 20 5 16 23 -5 25
-15 2 -15 1 1 -4z"/>
<path d="M600 437 c0 -8 7 -14 15 -14 11 0 12 4 4 14 -6 7 -13 13 -15 13 -2 0
-4 -6 -4 -13z"/>
<path d="M1371 413 c-1 -13 -5 -23 -10 -23 -5 0 -11 -9 -14 -20 -5 -21 7 -27
19 -9 4 8 9 7 15 -2 14 -24 17 -5 4 36 -9 28 -13 33 -14 18z"/>
<path d="M1545 350 c-3 -5 -1 -10 4 -10 6 0 11 5 11 10 0 6 -2 10 -4 10 -3 0
-8 -4 -11 -10z"/>
<path d="M1430 330 c0 -5 7 -10 15 -10 8 0 15 5 15 10 0 6 -7 10 -15 10 -8 0
-15 -4 -15 -10z"/>
<path d="M730 265 c0 -8 5 -15 10 -15 6 0 10 7 10 15 0 8 -4 15 -10 15 -5 0
-10 -7 -10 -15z"/>
<path d="M1546 141 c-4 -7 -5 -15 -2 -18 9 -9 19 4 14 18 -4 11 -6 11 -12 0z"/>
</g>
</svg>
